<?xml version="1.0" encoding="UTF-8"?>
<svg id="Layer_1" data-name="Layer 1" xmlns="http://www.w3.org/2000/svg" viewBox="0 0 612 619.37">
  <defs>
    <style>
      .cls-1, .cls-2, .cls-3 {
        stroke-width: 0px;
      }

      .cls-2 {
        fill: #09135b;
      }

      .cls-3 {
        fill: #c60c1a;
      }
    </style>
  </defs>
  <g>
    <g>
      <polygon class="cls-1" points="190.57 290.21 190.57 303.01 215.72 303.01 215.72 316.53 190.57 316.53 190.57 331.86 221.46 331.86 221.46 345.37 175.89 345.37 175.89 276.69 221.46 276.69 221.46 290.21 190.57 290.21"/>
      <polygon class="cls-1" points="247.68 290.21 247.68 303.01 272.82 303.01 272.82 316.53 247.68 316.53 247.68 331.86 278.56 331.86 278.56 345.37 232.99 345.37 232.99 276.69 278.56 276.69 278.56 290.21 247.68 290.21"/>
      <polygon class="cls-1" points="348.09 276.69 348.09 345.37 332.99 345.37 304 299.9 304 345.37 290.1 345.37 290.1 276.69 305.2 276.69 305.31 276.86 334.19 322.18 334.19 276.69 348.09 276.69"/>
      <path class="cls-1" d="m413.74,324.92c0,13.37-10.77,22.01-27.44,22.01-13.85,0-24.37-6.18-29.64-17.39l-.14-.29,12.16-6.95.16.33c3.53,7.35,9.44,11.07,17.56,11.07,7.4,0,12.56-3.17,12.56-7.71,0-5.25-6.8-7-14.68-9.03-10.86-2.79-24.36-6.28-24.36-20.88,0-12.72,10.16-20.93,25.89-20.93,12.25,0,21.33,5.15,27.01,15.33l.17.3-11.98,6.96-.17-.32c-3.06-6.13-8.21-9.23-15.33-9.23-6.53,0-10.91,2.75-10.91,6.84,0,4.9,6.61,6.58,14.27,8.52,11.08,2.81,24.87,6.3,24.87,21.39Z"/>
    </g>
    <g>
      <rect class="cls-1" x="451.44" y="276.69" width="14.69" height="68.68"/>
      <polygon class="cls-1" points="530.8 276.69 530.8 290.21 510.79 290.21 510.79 345.37 496.11 345.37 496.11 290.21 476.11 290.21 476.11 276.69 530.8 276.69"/>
    </g>
    <g>
      <path class="cls-2" d="m116.72,269.32c10.02,0,18.18,8.07,18.27,18.1h0v41.11c0,11.88-9.63,21.52-21.52,21.52h0v-59.85h-11.39c-11.53,0-20.88-9.35-20.88-20.88h0s35.52,0,35.52,0Z"/>
      <polygon class="cls-3" points="166.53 269.57 158.08 283.95 149.63 298.33 141.4 283.83 133.17 269.32 149.85 269.45 166.53 269.57"/>
    </g>
  </g>
  <g>
    <path class="cls-1" d="m251.56,381.7l1.92-1.13c1.03,2.23,2.77,3.34,5.26,3.34,2.62,0,4.29-1.23,4.29-3.16,0-4.8-10.65-1.95-10.65-8.42,0-3.11,2.44-5.16,6.08-5.16,2.95,0,5.34,1.36,6.57,3.82l-1.87,1.15c-.95-1.92-2.57-2.93-4.72-2.93-2.34,0-3.9,1.16-3.9,2.9,0,4.54,10.65,1.59,10.65,8.37,0,3.36-2.52,5.47-6.49,5.47-3.36,0-5.8-1.46-7.14-4.26Z"/>
    <path class="cls-1" d="m268.11,376.56c0-5.52,3.88-9.39,9.16-9.39,3.44,0,6.29,1.64,7.8,4.52l-1.93,1.08c-1.18-2.26-3.13-3.49-5.8-3.49-4.16,0-6.98,2.95-6.98,7.29s2.82,7.29,6.96,7.29c2.69,0,4.67-1.26,5.88-3.62l1.9,1.08c-1.46,2.95-4.34,4.65-7.83,4.65-5.29,0-9.16-3.88-9.16-9.39Z"/>
    <path class="cls-1" d="m288.44,367.58h2.23v7.42h9.19v-7.42h2.23v17.97h-2.23v-8.47h-9.19v8.47h-2.23v-17.97Z"/>
    <path class="cls-1" d="m305.99,376.56c0-5.44,3.88-9.39,9.11-9.39s9.08,3.95,9.08,9.39-3.85,9.39-9.08,9.39-9.11-3.95-9.11-9.39Zm15.94,0c0-4.31-2.8-7.29-6.83-7.29s-6.85,2.98-6.85,7.29,2.82,7.29,6.85,7.29,6.83-2.98,6.83-7.29Z"/>
    <path class="cls-1" d="m327.26,376.56c0-5.44,3.88-9.39,9.11-9.39s9.08,3.95,9.08,9.39-3.85,9.39-9.08,9.39-9.11-3.95-9.11-9.39Zm15.94,0c0-4.31-2.8-7.29-6.83-7.29s-6.85,2.98-6.85,7.29,2.82,7.29,6.85,7.29,6.83-2.98,6.83-7.29Z"/>
    <path class="cls-1" d="m349.36,367.58h2.23v15.89h8.75v2.08h-10.98v-17.97Z"/>
  </g>
</svg>